# xmcd
#
# Track frame offsets:
#	150
#	22922
#	41654
#	62419
#	80193
#	99912
#	117909
#	136342
#	153770
#	170422
#	186825
#	203560
#	218065
#	236218
#	253943
#	271826
#
# Disc length: 3856 seconds
#
# Revision: 1
# Processed by: cddbd v1.5.1PL2 Copyright (c) Steve Scherf et al.
# Submitted via: audiograbber 1.83.01
#
DISCID=d60f0e10
DTITLE=promo Only - Promo Only Urban Club 2006-02 Disc A
DYEAR=2006
DGENRE=Urban Radio
TTITLE0=Chamillionaire - Ridin' (ft. Krayzie Bone)
TTITLE1=David Banner - On Everything (ft. Twista)
TTITLE2=Ying Yang Twins - Bedroom Boom (ft. Avant)
TTITLE3=C.A.B. Life - Roll Up
TTITLE4=Homebwoi - Legendary Status (ft. Kadalack Boyz)
TTITLE5=Mack 10 - The Testimony (ft. Young Soprano and Pastor Steven Hamilton)
TTITLE6=Webbie - How U Ridin'
TTITLE7=David Banner - Touching (Also Known As "F*****") (ft. Jazze Pha)
TTITLE8=Voltio  - Chulin Culin Chunfly ( ft. Residente Calle 13 and Three 6 Mafia
TTITLE8=)
TTITLE9=Wordsmith - Ode To Tha Pioneers
TTITLE10=Petey Pablo - Give It Up
TTITLE11=Homebwoi - Flatline (Put That On Ya)
TTITLE12=Jazze Pha and Cee-Lo Green - Happy Hour
TTITLE13=Mobb Deep - Have A Party (ft. 50 Cent and Nate Dogg)
TTITLE14=Bun B - Git It (ft. Ying Yang Twins)
TTITLE15=Sly Kat - Ooh Darlin
EXTD=
EXTT0=
EXTT1=
EXTT2=
EXTT3=
EXTT4=
EXTT5=
EXTT6=
EXTT7=
EXTT8=
EXTT9=
EXTT10=
EXTT11=
EXTT12=
EXTT13=
EXTT14=
EXTT15=
PLAYORDER=
